<svg width="24" height="24" viewBox="0 0 24 24" fill="none" xmlns="http://www.w3.org/2000/svg">
<path fill-rule="evenodd" clip-rule="evenodd" d="M20.2141 16.9462C20.6283 17.6636 20.3825 18.581 19.6651 18.9952L15.3349 21.4952C14.6175 21.9094 13.7001 21.6636 13.2859 20.9462L10.5359 16.183L5.77276 18.933C5.05532 19.3472 4.13793 19.1014 3.72372 18.384L1.22372 14.0538C0.809507 13.3364 1.05532 12.419 1.77276 12.0048L18.2272 2.50481C18.9447 2.0906 19.8621 2.33641 20.2763 3.05385L22.7763 7.38397C23.1905 8.10141 22.9447 9.0188 22.2272 9.43301L17.4641 12.183L20.2141 16.9462ZM2.27276 12.8708L6.60289 10.3708C6.84203 10.2328 7.14783 10.3147 7.2859 10.5538L9.7859 14.884C9.92397 15.1231 9.84203 15.4289 9.60289 15.567L5.27276 18.067C5.03361 18.2051 4.72782 18.1231 4.58975 17.884L2.08975 13.5538C1.95167 13.3147 2.03361 13.0089 2.27276 12.8708ZM10.6519 14.384L8.15192 10.0538C8.01385 9.8147 8.09579 9.50891 8.33494 9.37083L12.6651 6.87083C12.9042 6.73276 13.21 6.8147 13.3481 7.05385L15.8481 11.384C15.9861 11.6231 15.9042 11.9289 15.6651 12.067L11.3349 14.567C11.0958 14.7051 10.79 14.6231 10.6519 14.384ZM16.8481 13.116C16.71 12.8769 16.4042 12.7949 16.1651 12.933L11.8349 15.433C11.5958 15.5711 11.5139 15.8769 11.6519 16.116L14.1519 20.4462C14.29 20.6853 14.5958 20.7672 14.8349 20.6292L19.1651 18.1292C19.4042 17.9911 19.4861 17.6853 19.3481 17.4462L16.8481 13.116ZM16.7141 10.884C16.8522 11.1231 17.158 11.2051 17.3971 11.067L21.7272 8.56699C21.9664 8.42892 22.0483 8.12312 21.9103 7.88397L19.4103 3.55385C19.2722 3.3147 18.9664 3.23276 18.7272 3.37083L14.3971 5.87083C14.158 6.00891 14.076 6.3147 14.2141 6.55385L16.7141 10.884Z" fill="black"/>
</svg>
